<?xml version="1.0" encoding="UTF-8"?>
<svg xmlns="http://www.w3.org/2000/svg" onmouseup="{ if(window.parent.document.onmouseup) window.parent.document.onmouseup(arguments[0]);}" xml:space="preserve" style="enable-background:new 0 0 275.8 29.5;" viewBox="0 0 275.8 29.5" y="0px" x="0px" id="Capa_1" version="1.1" xmlns:xlink="http://www.w3.org/1999/xlink"><style type="text/css">
	.st0{fill:none;stroke:#FFFFFF;stroke-width:0.25;}
</style><g><path data-cppathid="10000" d="M32.7,16.6c-1.8,2.5-4.9,3.5-9.7,3.5c-0.6,0-15.3,0-15.3,0V27H2.5V1.7h20.6c4.7,0,7.9,1.1,9.4,3   c1.1,1.4,1.8,3.4,1.8,6.2C34.2,13.3,33.7,15.2,32.7,16.6z M28.4,8.3c-0.8-1.3-2.8-2-6.2-2H7.7v9.1h14.4c3.6,0,5.4-0.7,6.3-2   c0.4-0.6,0.5-1.5,0.5-2.6C28.9,9.8,28.7,8.9,28.4,8.3z" class="st0"/><path data-cppathid="10001" d="M39.5,27h-5.7L50.7,1.7h6L73.1,27h-5.9l-3.8-5.6H43.4L39.5,27z M55,8.2l-1.5-2.5L52,8.2L46,16.8h14.8L55,8.2z" class="st0"/><path data-cppathid="10002" d="M108,13.1c-0.9,1.4-2.7,2.8-5.1,3l9.3,10.9h-6.1l-8.8-10.3H83V27h-5.3V1.7h21.1c4.4,0,7.3,1.2,8.8,2.9   c0.9,1.1,1.4,2.4,1.4,4.3C109,10.5,108.7,12,108,13.1z M103.3,7.7c-0.8-0.9-2-1.4-4.5-1.4H83v5.9h16.4c2.3,0,3.4-0.4,4-1.2   c0.4-0.6,0.5-1.1,0.5-1.7C103.9,8.7,103.7,8.1,103.3,7.7z" class="st0"/><path data-cppathid="10003" d="M132.6,6.5V27h-5.3V6.5H113V1.7h33.8v4.7H132.6z" class="st0"/><path data-cppathid="10004" d="M151.5,27V1.7h29.7v4.7h-24.5V12h23.9v4.6h-23.9v5.7h24.7V27H151.5z" class="st0"/><path data-cppathid="10005" d="M234.7,5.6c2.8,2.4,3.8,5.1,3.8,8.6c0,3.6-1.3,6.5-3.7,8.6c-3.2,3.1-8.5,4.5-15.2,4.5   c-6.4,0-11.3-1.6-14.6-4.3c-2.7-2.1-4.2-5.1-4.2-8.9c0-3.3,1.1-6.1,3.7-8.4c3.7-3.4,8.5-4.7,15.2-4.7   C226.3,1.1,231.2,2.6,234.7,5.6z M230.8,19.5c1.6-1.4,2.3-3.2,2.3-5.2c0-2-0.6-4-2.4-5.3c-2.5-2-5.8-3.1-11.2-3.1   c-5.1,0-9,1.2-11.2,3.2c-1.6,1.4-2.3,3.2-2.3,5.3c0,2.4,0.9,4.2,2.9,5.6c2.6,2,5.9,2.9,10.6,2.9C224.7,22.8,228.2,21.9,230.8,19.5z   " class="st0"/><path data-cppathid="10006" d="M242.9,27v-4.9c15.6-4.9,22.2-7.4,22.2-11.6c0-0.1,0-0.6,0-0.7c0-2.5-2.4-4-8.1-4c-4,0-6.7,0.8-7.8,3   c-0.4,0.7-0.5,1.8-0.5,2.4h-5.4c0-1.3,0.3-2.7,0.9-3.9c1.7-3.6,5.7-6,13.2-6c10.5,0,13.4,3.8,13.4,7.8c0,0.2,0,0.7,0,0.9   c0,5-5,9-16.9,12.4h18.9V27H242.9z" class="st0"/></g></svg>