<?xml version="1.0" encoding="UTF-8"?>
<svg xmlns="http://www.w3.org/2000/svg" onmouseup="{ if(window.parent.document.onmouseup) window.parent.document.onmouseup(arguments[0]);}" viewBox="0 0 905.64 96.69" data-name="Capa 1" id="Capa_1"><defs><style>.cls-1{fill:#fff;}</style></defs><path data-cppathid="10000" d="M50.75,25.57c-2.29,3.18-6.34,4.55-12.44,4.55H18.61V39H11.85V6.41H38.36c6,0,10.14,1.42,12.06,3.92a12.7,12.7,0,0,1,2.3,8A12,12,0,0,1,50.75,25.57ZM45.16,14.84c-1-1.63-3.63-2.59-8-2.59H18.57V24H37.06c4.63,0,7-.88,8.1-2.55a6.09,6.09,0,0,0,.67-3.3A6.81,6.81,0,0,0,45.16,14.84Z" class="cls-1"/><path data-cppathid="10001" d="M84.56,39a16.53,16.53,0,0,1-.37-2.63c-1.51,1.54-6.56,3.13-15.2,3.13-9.31,0-14.49-2.09-14.49-6.77v-.62c0-5,5-7.52,18.12-7.56,3.22,0,8.77.33,11.65.63a4.18,4.18,0,0,0-.67-2.43c-1-1.33-4-2.46-10.48-2.46-5.88,0-8.81.71-10,1.88a2.44,2.44,0,0,0-.55,1.38H56.22a7.13,7.13,0,0,1,.37-1.8c1.46-4,6.6-6.47,16.24-6.47,10.9,0,15.78,2.42,17,7.56a23.87,23.87,0,0,1,.38,4.84c0,.84-.09,3.88-.09,5.76A18.62,18.62,0,0,0,90.82,39ZM72.08,28.87c-6.14,0-9,.71-10.27,1.84a2,2,0,0,0-.54,1.37,1.48,1.48,0,0,0,.33,1.09c1,1.13,3.72,1.75,8.22,1.75,8.81,0,14.45-1,14.45-5.55C81.51,29.12,76.55,28.87,72.08,28.87Z" class="cls-1"/><path data-cppathid="10002" d="M114.74,39.52c-12.32,0-16.78-1.84-18.16-6.43a5.45,5.45,0,0,1-.29-1.55h6.3a2,2,0,0,0,.46,1.25c1,1.13,4,1.76,11.73,1.76,9.73,0,11.1-1.09,11.1-2.51,0-1.58-1.25-1.92-9.68-2.33-1.63-.09-4.55-.3-6.51-.42-9.23-.54-12.82-2.67-12.82-6.85,0-4.59,5.34-7.18,16-7.18s15.57,1.59,17.33,5.89A6.68,6.68,0,0,1,130.6,23h-6.3a2.42,2.42,0,0,0-.38-.87c-1-1.09-3.84-1.8-10.6-1.8-9.19,0-10.35.88-10.35,2.17s1,1.67,9,2.09c2,.13,5,.29,7,.38,9.73.37,13.07,2.5,13.07,7.05C132,36.89,127.3,39.52,114.74,39.52Z" class="cls-1"/><path data-cppathid="10003" d="M174.68,32.92c-2.84,4.09-8.93,6.6-18.37,6.6-8.89,0-15.2-2.51-18.16-6.52a10.14,10.14,0,0,1-1.84-5.59A8.87,8.87,0,0,1,138.07,22c3-4.09,9.06-6.72,18.24-6.72,9.52,0,15.36,2.92,18.2,6.6a9.19,9.19,0,0,1,.17,11Zm-6.26-8.81c-2.09-2-6.26-3.46-12.11-3.46s-9.77,1.33-12.15,3.5a4.81,4.81,0,0,0,0,6.6c1.92,2.13,6.31,3.59,12.11,3.59,6.14,0,10.19-1.34,12.23-3.63a5,5,0,0,0,1.34-3.26A4.32,4.32,0,0,0,168.42,24.11Z" class="cls-1"/><path data-cppathid="10004" d="M198.89,39.52c-12.32,0-16.79-1.84-18.16-6.43a5.49,5.49,0,0,1-.3-1.55h6.31a2,2,0,0,0,.46,1.25c1,1.13,4.05,1.76,11.73,1.76,9.72,0,11.1-1.09,11.1-2.51,0-1.58-1.25-1.92-9.68-2.33-1.63-.09-4.55-.3-6.52-.42-9.22-.54-12.81-2.67-12.81-6.85,0-4.59,5.34-7.18,16-7.18s15.57,1.59,17.32,5.89a6.78,6.78,0,0,1,.38,1.83h-6.3a2.61,2.61,0,0,0-.38-.87c-1-1.09-3.84-1.8-10.6-1.8-9.19,0-10.36.88-10.36,2.17s1,1.67,9,2.09c2,.13,5,.29,7,.38,9.73.37,13.07,2.5,13.07,7.05C216.13,36.89,211.45,39.52,198.89,39.52Z" class="cls-1"/><path data-cppathid="10005" d="M277.69,33.88c-2.92,3.51-8.34,5.51-15.27,5.51-5.18,0-11.86-1.25-14.12-4V46.78h-6.42V16.1h6.22V20c1.75-2.42,7.51-4.55,14.36-4.55,7.76,0,12.81,2.09,15.4,5.51A10.63,10.63,0,0,1,280,27.45,10,10,0,0,1,277.69,33.88Zm-6-10.19c-2.05-2-5.81-3-10.94-3s-9.4,1.21-11.27,3.46a5.18,5.18,0,0,0-1.42,3.59,4.85,4.85,0,0,0,1.33,3.3c1.8,2,5.85,3.21,11.36,3.21,5.3,0,9.22-1.16,11.23-3.21a5.21,5.21,0,0,0,1.38-3.63A5,5,0,0,0,271.73,23.69Z" class="cls-1"/><path data-cppathid="10006" d="M314.47,39a16.24,16.24,0,0,1-.38-2.63c-1.5,1.54-6.55,3.13-15.2,3.13-9.31,0-14.48-2.09-14.48-6.77v-.62c0-5,5-7.52,18.12-7.56,3.21,0,8.76.33,11.64.63a4.24,4.24,0,0,0-.66-2.43c-1.05-1.33-4.05-2.46-10.48-2.46-5.89,0-8.81.71-10,1.88a2.5,2.5,0,0,0-.54,1.38h-6.39a7.16,7.16,0,0,1,.38-1.8c1.46-4,6.59-6.47,16.23-6.47,10.9,0,15.79,2.42,17,7.56a23.93,23.93,0,0,1,.37,4.84c0,.84-.08,3.88-.08,5.76a18.3,18.3,0,0,0,.71,5.56ZM302,28.87c-6.13,0-9,.71-10.27,1.84a2,2,0,0,0-.54,1.37,1.45,1.45,0,0,0,.34,1.09c1,1.13,3.71,1.75,8.22,1.75,8.81,0,14.44-1,14.44-5.55C311.42,29.12,306.45,28.87,302,28.87Z" class="cls-1"/><path data-cppathid="10007" d="M354,22.23a38.53,38.53,0,0,0-7.35-.67c-5.64,0-11,3.05-11,9.15V39h-6.47v-23h6.26v5.89c1.13-3.21,5.55-5.8,11.06-6.14A34,34,0,0,1,354,16Z" class="cls-1"/><path data-cppathid="10008" d="M385.88,39a16.53,16.53,0,0,1-.37-2.63c-1.5,1.54-6.56,3.13-15.2,3.13-9.31,0-14.48-2.09-14.48-6.77v-.62c0-5,5-7.52,18.11-7.56,3.22,0,8.77.33,11.65.63a4.18,4.18,0,0,0-.67-2.43c-1-1.33-4.05-2.46-10.48-2.46-5.88,0-8.8.71-10,1.88a2.52,2.52,0,0,0-.55,1.38h-6.38a7.59,7.59,0,0,1,.37-1.8c1.46-4,6.6-6.47,16.24-6.47,10.9,0,15.78,2.42,17,7.56a23.17,23.17,0,0,1,.38,4.84c0,.84-.08,3.88-.08,5.76a18.3,18.3,0,0,0,.71,5.56ZM373.4,28.87c-6.14,0-9,.71-10.27,1.84a2,2,0,0,0-.54,1.37,1.48,1.48,0,0,0,.33,1.09c1,1.13,3.72,1.75,8.23,1.75,8.81,0,14.44-1,14.44-5.55C382.84,29.12,377.87,28.87,373.4,28.87Z" class="cls-1"/><path data-cppathid="10009" d="M420.23,39c-.25-.09-.42-.92-.42-2.34V9.25a16.69,16.69,0,0,0-.2-3.26H426a19.33,19.33,0,0,1,.17,3.13V36.34c0,1.21.08,2.51.5,2.68Z" class="cls-1"/><path data-cppathid="10010" d="M436.84,12.92V6.33h6.73v6.59Zm.67,26.1c-.37-.09-.54-1.13-.54-3.47V16.05h6.51V35.51c0,2.59,0,3.17.59,3.51Z" class="cls-1"/><path data-cppathid="10011" d="M502.84,27.87c0-3.76-1.75-6.93-8.93-6.93-5,0-9.31,2-9.31,6.93V39h-6V27.33c0-3.93-3.51-6.39-8.68-6.39-5.85,0-9.52,3.3-9.52,6.8V39H454v-23h6.22v5.31c1.63-3.93,6.89-5.89,11.94-5.89,5.3,0,10,1.75,11.52,6,1.76-3.92,6.05-6,12.19-6,9.4,0,12.61,4.59,12.61,11.23,0,11.73,0,12,.42,12.32h-5.6C502.84,39,502.84,36.55,502.84,27.87Z" class="cls-1"/><path data-cppathid="10012" d="M553.89,33.88c-2.92,3.51-8.35,5.51-15.28,5.51-5.18,0-11.86-1.25-14.11-4V46.78h-6.43V16.1h6.22V20c1.75-2.42,7.52-4.55,14.36-4.55,7.77,0,12.82,2.09,15.41,5.51a10.63,10.63,0,0,1,2.17,6.51A10.07,10.07,0,0,1,553.89,33.88Zm-6-10.19c-2-2-5.8-3-10.94-3s-9.39,1.21-11.27,3.46a5.18,5.18,0,0,0-1.42,3.59,4.82,4.82,0,0,0,1.34,3.3c1.79,2,5.84,3.21,11.35,3.21,5.3,0,9.23-1.16,11.23-3.21a5.21,5.21,0,0,0,1.38-3.63A5,5,0,0,0,547.92,23.69Z" class="cls-1"/><path data-cppathid="10013" d="M563.57,12.92V6.33h6.72v6.59Zm.66,26.1c-.37-.09-.54-1.13-.54-3.47V16.05h6.51V35.51c0,2.59,0,3.17.59,3.51Z" class="cls-1"/><path data-cppathid="10014" d="M608.23,39a16.53,16.53,0,0,1-.37-2.63c-1.51,1.54-6.56,3.13-15.2,3.13-9.31,0-14.49-2.09-14.49-6.77v-.62c0-5,5-7.52,18.12-7.56,3.22,0,8.77.33,11.65.63a4.18,4.18,0,0,0-.67-2.43c-1-1.33-4-2.46-10.48-2.46-5.88,0-8.81.71-10,1.88a2.52,2.52,0,0,0-.55,1.38h-6.38a7.13,7.13,0,0,1,.37-1.8c1.46-4,6.6-6.47,16.24-6.47,10.9,0,15.78,2.42,17,7.56a23.87,23.87,0,0,1,.38,4.84c0,.84-.08,3.88-.08,5.76a18.7,18.7,0,0,0,.7,5.56ZM595.75,28.87c-6.14,0-9,.71-10.27,1.84a2,2,0,0,0-.54,1.37,1.48,1.48,0,0,0,.33,1.09c1,1.13,3.72,1.75,8.23,1.75,8.81,0,14.44-1,14.44-5.55C605.19,29.12,600.22,28.87,595.75,28.87Z" class="cls-1"/><path data-cppathid="10015" d="M647.8,22.23a38.45,38.45,0,0,0-7.35-.67c-5.63,0-11,3.05-11,9.15V39H623v-23h6.27v5.89c1.12-3.21,5.55-5.8,11.06-6.14a33.91,33.91,0,0,1,7.47.21Z" class="cls-1"/><path data-cppathid="10016" d="M687,46.78h-7.47L685.24,39,668.16,16.05h6.93L688.75,33.8l12.86-17.75h6.8Z" class="cls-1"/><path data-cppathid="10017" d="M40.36,69.86V56.21H46.7V86.35A21.71,21.71,0,0,0,47,89.1H40.69l-.16-4.25c-2,3.08-7.94,4.71-14,4.71-8.43,0-13.86-2.08-16.41-5.8a10.48,10.48,0,0,1-1.92-6.1,10.91,10.91,0,0,1,1.88-6.3c2.51-3.8,7.68-6,15.7-6C32.51,65.39,38,66.77,40.36,69.86ZM15.9,74.07a5.43,5.43,0,0,0-1.26,3.55,5.14,5.14,0,0,0,1.26,3.51c2,2.25,6.09,3.34,12.1,3.34S38,83.3,39.61,80.8a5.49,5.49,0,0,0,.87-3.18A5.16,5.16,0,0,0,39.19,74c-2-2.17-5.93-3.3-11.73-3.3S17.65,71.9,15.9,74.07Z" class="cls-1"/><path data-cppathid="10018" d="M90.82,84.47c-2.54,2.63-7.89,5.18-17.45,5.18-8.76,0-15.15-1.92-18-6.27a10.66,10.66,0,0,1-1.75-6,9.83,9.83,0,0,1,1.79-5.64c3-4,9.52-6.34,17.91-6.34,10.31,0,17.24,3.59,18.87,10a22.28,22.28,0,0,1,.58,4.38H60.06a4.08,4.08,0,0,0,1.88,2.38c2,1.71,5.88,2.8,11.81,2.8a25.94,25.94,0,0,0,9.48-1.46,7,7,0,0,0,2-1.51h7.1A7.18,7.18,0,0,1,90.82,84.47ZM84.9,73.16c-1.55-1.63-5.6-2.93-11.74-2.93-5.84,0-10.47,1.26-12.1,3.13a3.69,3.69,0,0,0-1,2.18H86.23A3.4,3.4,0,0,0,84.9,73.16Z" class="cls-1"/><path data-cppathid="10019" d="M114.45,89.6c-12.32,0-16.79-1.83-18.17-6.42A5.83,5.83,0,0,1,96,81.63h6.31a2,2,0,0,0,.46,1.25c1,1.13,4,1.76,11.73,1.76,9.72,0,11.1-1.09,11.1-2.51,0-1.58-1.25-1.92-9.68-2.34-1.63-.08-4.55-.29-6.52-.41-9.22-.55-12.81-2.68-12.81-6.85,0-4.59,5.34-7.18,16-7.18s15.57,1.59,17.32,5.89a6.71,6.71,0,0,1,.38,1.83H124a2.61,2.61,0,0,0-.38-.87c-1-1.09-3.84-1.8-10.6-1.8-9.19,0-10.36.88-10.36,2.17s1,1.67,9,2.09c2,.12,5,.29,7,.37,9.73.38,13.07,2.51,13.07,7.06C131.69,87,127,89.6,114.45,89.6Z" class="cls-1"/><path data-cppathid="10020" d="M139.15,63v-6.6h6.72V63Zm.67,26.09c-.38-.08-.54-1.12-.54-3.46V66.14h6.51V85.6c0,2.59,0,3.17.59,3.5Z" class="cls-1"/><path data-cppathid="10021" d="M184.19,89.1c-.29,0-.45-1.37-.45-11.18,0-4.56-3.09-6.89-9.9-6.89-5.8,0-11.1,2.71-11.1,6.93V89.1h-6.43v-23h6.22v5.3c2.09-4.46,8.18-6,14.07-6,9.93,0,13.61,4.89,13.61,11.36,0,11.65.12,11.85.33,12.31Z" class="cls-1"/><path data-cppathid="10022" d="M209.28,71.78V89.1h-6.47V71.78h-7.23v-5.3h7.23V64.39c0-5,3.17-8.73,11.1-8.73,2,0,6.56.17,7.64.34v5.38A63.85,63.85,0,0,0,214.5,61c-4.22,0-5.35,1.5-5.35,3.75v1.72h12.49v5.3Z" class="cls-1"/><path data-cppathid="10023" d="M261.42,84.47c-2.55,2.63-7.9,5.18-17.45,5.18-8.77,0-15.16-1.92-18-6.27a10.66,10.66,0,0,1-1.75-6A9.91,9.91,0,0,1,226,71.69c3-4,9.52-6.34,17.91-6.34,10.31,0,17.24,3.59,18.87,10a22.3,22.3,0,0,1,.59,4.38H230.65a4.12,4.12,0,0,0,1.88,2.38c2,1.71,5.88,2.8,11.81,2.8a25.9,25.9,0,0,0,9.48-1.46,7,7,0,0,0,2-1.51h7.1A7.14,7.14,0,0,1,261.42,84.47Zm-5.93-11.31c-1.55-1.63-5.6-2.93-11.73-2.93-5.85,0-10.48,1.26-12.11,3.13a3.69,3.69,0,0,0-1,2.18h26.17A3.4,3.4,0,0,0,255.49,73.16Z" class="cls-1"/><path data-cppathid="10024" d="M299.06,75.33c-.79-3-4.71-4.6-12.19-4.6-5.92,0-10.22,1.26-12.31,3.68a5,5,0,0,0-1.13,3.25A5.17,5.17,0,0,0,274.6,81c1.88,2.34,6.51,3.47,12.32,3.47s9-.84,10.64-2.17A5.87,5.87,0,0,0,299,80.42h6.51a9.3,9.3,0,0,1-1.92,4.09c-2.71,3.09-7.93,5.09-16.74,5.09-9.14,0-15.28-2.25-18-5.88a10,10,0,0,1-1.92-6.18,9.51,9.51,0,0,1,2-6c3-3.8,9.23-6.18,18-6.18,9,0,14.49,2.26,17,6a10,10,0,0,1,1.5,3.93Z" class="cls-1"/><path data-cppathid="10025" d="M321.48,71.78v8.39c0,3,1.33,4.17,5,4.17a43.92,43.92,0,0,0,6.06-.5v4.93a34.67,34.67,0,0,1-8.06.83c-5.6,0-9.44-1.79-9.44-8.09V71.78H308v-5.3H315c.17-1.55.17-5.89.17-5.89l6.22-.17v6.06h11.36v5.3Z" class="cls-1"/><path data-cppathid="10026" d="M367.1,89.1a16.06,16.06,0,0,1-.38-2.63c-1.5,1.55-6.55,3.13-15.19,3.13-9.31,0-14.49-2.08-14.49-6.76v-.62c0-5,5-7.52,18.12-7.56,3.21,0,8.77.33,11.65.62a4.23,4.23,0,0,0-.67-2.42c-1-1.33-4.05-2.46-10.48-2.46-5.89,0-8.81.71-10,1.88a2.47,2.47,0,0,0-.54,1.38h-6.39a7.16,7.16,0,0,1,.38-1.8c1.46-4,6.6-6.47,16.24-6.47,10.9,0,15.78,2.42,17,7.56a23.81,23.81,0,0,1,.38,4.84c-.05.83-.09,3.88-.09,5.76a18.49,18.49,0,0,0,.71,5.55ZM354.62,79c-6.14,0-9,.71-10.27,1.84a1.94,1.94,0,0,0-.54,1.37,1.48,1.48,0,0,0,.33,1.09c1,1.13,3.71,1.75,8.22,1.75,8.81,0,14.45-1,14.45-5.55C364.05,79.21,359.08,79,354.62,79Z" class="cls-1"/><path data-cppathid="10027" d="M406.67,72.32a38.53,38.53,0,0,0-7.35-.67c-5.63,0-11,3-11,9.15v8.3h-6.47v-23h6.26V72c1.13-3.22,5.56-5.8,11.07-6.14a33.91,33.91,0,0,1,7.47.21Z" class="cls-1"/><path data-cppathid="10028" d="M465.86,84.47c-2.55,2.63-7.89,5.18-17.45,5.18-8.77,0-15.16-1.92-18-6.27a10.74,10.74,0,0,1-1.75-6,9.91,9.91,0,0,1,1.79-5.64c3-4,9.52-6.34,17.91-6.34,10.32,0,17.25,3.59,18.87,10a21.57,21.57,0,0,1,.59,4.38H435.09A4.12,4.12,0,0,0,437,82.09c2,1.71,5.89,2.8,11.81,2.8a25.86,25.86,0,0,0,9.48-1.46,6.83,6.83,0,0,0,2-1.51h7.1A7.14,7.14,0,0,1,465.86,84.47Zm-5.93-11.31c-1.54-1.63-5.59-2.93-11.73-2.93-5.85,0-10.48,1.26-12.11,3.13a3.75,3.75,0,0,0-1,2.18h26.18A3.41,3.41,0,0,0,459.93,73.16Z" class="cls-1"/><path data-cppathid="10029" d="M475,89.1c-.25-.08-.42-.91-.42-2.33V59.34a15.61,15.61,0,0,0-.21-3.26h6.43a19.25,19.25,0,0,1,.17,3.13V86.43c0,1.21.08,2.51.5,2.67Z" class="cls-1"/><path data-cppathid="10030" d="M544.46,84.47c-2.55,2.63-7.89,5.18-17.46,5.18-8.76,0-15.15-1.92-18-6.27a10.66,10.66,0,0,1-1.75-6A9.91,9.91,0,0,1,509,71.69c3-4,9.52-6.34,17.91-6.34,10.31,0,17.24,3.59,18.87,10a22.3,22.3,0,0,1,.59,4.38H513.69a4.12,4.12,0,0,0,1.88,2.38c2,1.71,5.88,2.8,11.81,2.8a25.9,25.9,0,0,0,9.48-1.46,7,7,0,0,0,2-1.51H546A7.14,7.14,0,0,1,544.46,84.47Zm-5.93-11.31c-1.55-1.63-5.6-2.93-11.73-2.93-5.85,0-10.48,1.26-12.11,3.13a3.69,3.69,0,0,0-1,2.18h26.17A3.4,3.4,0,0,0,538.53,73.16Z" class="cls-1"/><path data-cppathid="10031" d="M582.48,96.87l-.21-.21V85.22c-2.88,3-8,4.34-14.95,4.34-7.47,0-12.56-1.92-15.19-5.34a11.26,11.26,0,0,1,.08-13.4c2.63-3.22,8.52-5.43,15.53-5.43,7.31,0,12.49,1.59,14.82,4.68,0-.8,0-3.8,0-3.8h5.85V93.86a15.86,15.86,0,0,0,.17,3ZM580.93,74c-2-2-6-3.26-11.81-3.26-5,0-9.77,1.17-11.48,3.43a5.23,5.23,0,0,0-1.25,3.5,5.31,5.31,0,0,0,1.25,3.55c1.84,2.22,5.84,3.3,11.81,3.3s10.07-1.17,11.86-3.71a5.72,5.72,0,0,0,1-3.22A4.79,4.79,0,0,0,580.93,74Z" class="cls-1"/><path data-cppathid="10032" d="M631.36,89.1H625.1L624.93,85c-3,3.88-8.77,4.72-14.2,4.72-8.39,0-13.48-2.51-13.48-9.81,0-13.24-.17-13.4-.42-13.74h6.64c.21,0,.25,5.64.25,11.57,0,5,2.46,6.55,9.6,6.55,6.85,0,11.4-2.84,11.4-6.68V66.14h6.51V84.47C631.23,87.73,631.36,89,631.36,89.1Z" class="cls-1"/><path data-cppathid="10033" d="M641.41,63v-6.6h6.72V63Zm.67,26.09c-.38-.08-.54-1.12-.54-3.46V66.14h6.51V85.6c0,2.59,0,3.17.58,3.5Z" class="cls-1"/><path data-cppathid="10034" d="M694.39,84c-2.93,3.51-8.35,5.51-15.28,5.51-5.18,0-11.86-1.25-14.12-4V96.87h-6.42V66.18h6.22v3.89c1.75-2.42,7.51-4.55,14.36-4.55,7.76,0,12.81,2.08,15.4,5.51a10.63,10.63,0,0,1,2.17,6.51A10.06,10.06,0,0,1,694.39,84Zm-6-10.19c-2-2-5.81-3-10.94-3s-9.4,1.21-11.27,3.47a5.18,5.18,0,0,0-1.42,3.59,4.85,4.85,0,0,0,1.33,3.3c1.8,2,5.85,3.21,11.36,3.21,5.3,0,9.22-1.17,11.23-3.21a5.23,5.23,0,0,0,1.38-3.63A5,5,0,0,0,688.42,73.78Z" class="cls-1"/><path data-cppathid="10035" d="M739.3,83c-2.84,4.09-8.94,6.59-18.37,6.59-8.89,0-15.2-2.5-18.16-6.51a10.14,10.14,0,0,1-1.84-5.59,8.86,8.86,0,0,1,1.75-5.39c3-4.09,9.06-6.72,18.25-6.72,9.52,0,15.36,2.92,18.2,6.6a9.19,9.19,0,0,1,.17,11ZM733,74.2c-2.09-2-6.27-3.47-12.11-3.47s-9.77,1.34-12.15,3.51a4.81,4.81,0,0,0,0,6.6c1.92,2.13,6.31,3.59,12.11,3.59,6.14,0,10.18-1.34,12.23-3.63a5,5,0,0,0,1.34-3.26A4.32,4.32,0,0,0,733,74.2Z" class="cls-1"/></svg>