<?xml version="1.0" encoding="UTF-8"?>
<svg xmlns="http://www.w3.org/2000/svg" onmouseup="{ if(window.parent.document.onmouseup) window.parent.document.onmouseup(arguments[0]);}" viewBox="0 0 809.55 96.69" data-name="Capa 1" id="Capa_1"><defs><style>.cls-1{fill:#fff;}</style></defs><path data-cppathid="10000" d="M5.84,63.73V31.12H44v6.06H12.57v7.18H43.33v5.88H12.57v7.39H44.42v6.1Z" class="cls-1"/><path data-cppathid="10001" d="M53.64,63.73c-.25-.08-.42-.92-.42-2.34V34A15.42,15.42,0,0,0,53,30.71h6.43a19.25,19.25,0,0,1,.17,3.13V61.06c0,1.21.08,2.5.5,2.67Z" class="cls-1"/><path data-cppathid="10002" d="M137.38,52.58c0-3.76-1.76-6.93-8.94-6.93-5,0-9.31,2.05-9.31,6.93V63.73h-6V52c0-3.93-3.5-6.39-8.68-6.39C98.63,45.65,95,49,95,52.46V63.73H88.53v-23h6.22v5.3c1.63-3.93,6.89-5.89,11.94-5.89,5.3,0,10,1.76,11.52,6,1.76-3.92,6.06-6,12.19-6,9.4,0,12.61,4.6,12.61,11.23,0,11.73,0,12,.42,12.32h-5.59C137.38,63.73,137.38,61.27,137.38,52.58Z" class="cls-1"/><path data-cppathid="10003" d="M187.21,59.09c-2.54,2.63-7.89,5.18-17.45,5.18-8.77,0-15.15-1.92-18-6.26A10.7,10.7,0,0,1,150,52a9.81,9.81,0,0,1,1.8-5.64c3-4,9.52-6.35,17.91-6.35,10.31,0,17.24,3.59,18.87,10a22.28,22.28,0,0,1,.58,4.38H156.44a4.06,4.06,0,0,0,1.88,2.38c2,1.72,5.89,2.8,11.82,2.8a25.83,25.83,0,0,0,9.47-1.46,6.82,6.82,0,0,0,2-1.5h7.1A7.15,7.15,0,0,1,187.21,59.09Zm-5.93-11.31c-1.54-1.63-5.59-2.92-11.73-2.92-5.84,0-10.48,1.25-12.1,3.13a3.71,3.71,0,0,0-1,2.17h26.18A3.41,3.41,0,0,0,181.28,47.78Zm-9.64-16.49h6.76L172,38.51h-6Z" class="cls-1"/><path data-cppathid="10004" d="M204.24,46.4v8.39c0,3.05,1.33,4.18,5,4.18a43.92,43.92,0,0,0,6.06-.5v4.92a34.56,34.56,0,0,1-8.06.84c-5.59,0-9.43-1.8-9.43-8.1V46.4h-7.06V41.1h7.06c.16-1.54.16-5.89.16-5.89l6.22-.16V41.1h11.36v5.3Z" class="cls-1"/><path data-cppathid="10005" d="M258,57.63c-2.84,4.09-8.93,6.6-18.37,6.6-8.89,0-15.19-2.51-18.16-6.51a10.24,10.24,0,0,1-1.83-5.6,8.81,8.81,0,0,1,1.75-5.38c3-4.09,9.06-6.72,18.24-6.72,9.52,0,15.37,2.92,18.21,6.59a9.17,9.17,0,0,1,.16,11Zm-6.26-8.81c-2.09-2-6.26-3.46-12.11-3.46s-9.77,1.34-12.14,3.51a4.77,4.77,0,0,0,0,6.59c1.92,2.13,6.3,3.59,12.1,3.59,6.14,0,10.19-1.33,12.24-3.63a5,5,0,0,0,1.33-3.26A4.28,4.28,0,0,0,251.74,48.82Z" class="cls-1"/><path data-cppathid="10006" d="M296.28,44.48V30.83h6.34V61a22.81,22.81,0,0,0,.25,2.76h-6.26l-.17-4.26c-2,3.09-7.93,4.72-14,4.72-8.44,0-13.86-2.09-16.41-5.81a10.45,10.45,0,0,1-1.92-6.09A10.91,10.91,0,0,1,266,46c2.5-3.8,7.68-6,15.7-6C288.43,40,293.94,41.39,296.28,44.48ZM271.81,48.7a5.44,5.44,0,0,0-1.25,3.55,5.16,5.16,0,0,0,1.25,3.5c2,2.26,6.1,3.34,12.11,3.34s10-1.16,11.61-3.67a5.46,5.46,0,0,0,.87-3.17,5.13,5.13,0,0,0-1.29-3.59c-2-2.17-5.93-3.3-11.73-3.3S273.57,46.53,271.81,48.7Z" class="cls-1"/><path data-cppathid="10007" d="M347.79,57.63c-2.84,4.09-8.94,6.6-18.37,6.6-8.9,0-15.2-2.51-18.16-6.51a10.17,10.17,0,0,1-1.84-5.6,8.81,8.81,0,0,1,1.75-5.38c3-4.09,9.06-6.72,18.25-6.72,9.52,0,15.36,2.92,18.2,6.59a9.19,9.19,0,0,1,.17,11Zm-6.27-8.81c-2.08-2-6.26-3.46-12.1-3.46s-9.77,1.34-12.15,3.51a4.77,4.77,0,0,0,0,6.59c1.92,2.13,6.3,3.59,12.11,3.59,6.13,0,10.18-1.33,12.23-3.63A5,5,0,0,0,343,52.16,4.29,4.29,0,0,0,341.52,48.82Z" class="cls-1"/><path data-cppathid="10008" d="M404.76,44.48V30.83h6.35V61a22.81,22.81,0,0,0,.25,2.76h-6.27l-.16-4.26c-2,3.09-7.93,4.72-14,4.72-8.43,0-13.86-2.09-16.41-5.81a10.45,10.45,0,0,1-1.92-6.09,10.91,10.91,0,0,1,1.88-6.3c2.51-3.8,7.68-6,15.7-6C396.91,40,402.42,41.39,404.76,44.48ZM380.3,48.7A5.39,5.39,0,0,0,379,52.25a5.12,5.12,0,0,0,1.26,3.5c2,2.26,6.09,3.34,12.1,3.34s10-1.16,11.61-3.67a5.39,5.39,0,0,0,.88-3.17,5.14,5.14,0,0,0-1.3-3.59c-2-2.17-5.93-3.3-11.73-3.3S382.05,46.53,380.3,48.7Z" class="cls-1"/><path data-cppathid="10009" d="M455.23,59.09c-2.55,2.63-7.89,5.18-17.46,5.18-8.76,0-15.15-1.92-18-6.26A10.68,10.68,0,0,1,418,52a9.88,9.88,0,0,1,1.79-5.64c3-4,9.52-6.35,17.91-6.35,10.31,0,17.24,3.59,18.87,10a22.3,22.3,0,0,1,.59,4.38H424.46a4.06,4.06,0,0,0,1.88,2.38c2,1.72,5.88,2.8,11.81,2.8a25.9,25.9,0,0,0,9.48-1.46,6.77,6.77,0,0,0,2-1.5h7.1A7.11,7.11,0,0,1,455.23,59.09ZM449.3,47.78c-1.55-1.63-5.6-2.92-11.73-2.92-5.85,0-10.48,1.25-12.11,3.13a3.64,3.64,0,0,0-1,2.17h26.17A3.43,3.43,0,0,0,449.3,47.78Z" class="cls-1"/><path data-cppathid="10010" d="M483,63.73c-.25-.08-.42-.92-.42-2.34V34a15.42,15.42,0,0,0-.21-3.25h6.43a19.25,19.25,0,0,1,.17,3.13V61.06c0,1.21.08,2.5.5,2.67Z" class="cls-1"/><path data-cppathid="10011" d="M526.73,63.73a16.06,16.06,0,0,1-.38-2.63c-1.5,1.54-6.56,3.13-15.2,3.13-9.31,0-14.48-2.09-14.48-6.76v-.63c0-5,5-7.52,18.11-7.56,3.22,0,8.77.34,11.65.63a4.19,4.19,0,0,0-.66-2.42c-1-1.34-4-2.46-10.48-2.46-5.89,0-8.81.71-10,1.87a2.43,2.43,0,0,0-.54,1.38h-6.39a7.52,7.52,0,0,1,.37-1.79c1.47-4,6.6-6.47,16.24-6.47,10.9,0,15.78,2.42,17,7.55a24,24,0,0,1,.37,4.84c0,.84-.08,3.89-.08,5.77a18.27,18.27,0,0,0,.71,5.55ZM514.24,53.58c-6.13,0-9,.71-10.27,1.84a2,2,0,0,0-.54,1.38,1.47,1.47,0,0,0,.33,1.08c1,1.13,3.72,1.76,8.23,1.76,8.81,0,14.44-1,14.44-5.56C523.68,53.83,518.71,53.58,514.24,53.58Z" class="cls-1"/><path data-cppathid="10012" d="M589.63,50c-.8-3-4.72-4.59-12.19-4.59-5.93,0-10.23,1.25-12.32,3.67A5.07,5.07,0,0,0,564,52.29a5.21,5.21,0,0,0,1.17,3.3c1.88,2.34,6.52,3.46,12.32,3.46s9-.83,10.64-2.17A5.94,5.94,0,0,0,589.59,55h6.51a9.39,9.39,0,0,1-1.92,4.1c-2.72,3.09-7.93,5.09-16.74,5.09-9.15,0-15.28-2.25-18-5.89a10,10,0,0,1-1.92-6.18,9.53,9.53,0,0,1,2-6c3-3.79,9.23-6.17,18-6.17,9,0,14.48,2.25,17,6A9.85,9.85,0,0,1,596,50Z" class="cls-1"/><path data-cppathid="10013" d="M636.92,63.73h-6.26l-.17-4.13c-3,3.88-8.77,4.71-14.19,4.71-8.4,0-13.49-2.5-13.49-9.81,0-13.23-.17-13.4-.42-13.73H609c.21,0,.25,5.63.25,11.56,0,5,2.47,6.56,9.6,6.56,6.85,0,11.4-2.84,11.4-6.68V40.77h6.51V59.09C636.79,62.35,636.92,63.6,636.92,63.73Z" class="cls-1"/><path data-cppathid="10014" d="M683.34,46.82a11,11,0,0,1,1.25,5.34,10.44,10.44,0,0,1-1.38,5.39c-2.51,4.17-8.14,6.55-15.74,6.55-5.89,0-12-1.42-14.49-4.25v3.88h-6.42V30.58H653v14c1.92-2.38,6-4.47,14.41-4.47C676.15,40.1,681.21,42.77,683.34,46.82ZM653.4,49.53a6.34,6.34,0,0,0-.63,2.76,5.06,5.06,0,0,0,.88,2.92c1.55,2.21,5.39,3.72,11.69,3.72,6.1,0,9.85-1.3,11.57-3.43a5.56,5.56,0,0,0,0-6.76c-1.92-2.34-6.22-3.42-11.69-3.42C658.37,45.32,654.82,47.11,653.4,49.53Z" class="cls-1"/><path data-cppathid="10015" d="M726.33,59.09c-2.55,2.63-7.89,5.18-17.45,5.18-8.77,0-15.16-1.92-18-6.26a10.76,10.76,0,0,1-1.75-6,9.88,9.88,0,0,1,1.79-5.64c3-4,9.52-6.35,17.91-6.35,10.32,0,17.24,3.59,18.87,10a21.57,21.57,0,0,1,.59,4.38H695.56a4.06,4.06,0,0,0,1.88,2.38c2,1.72,5.88,2.8,11.81,2.8a25.9,25.9,0,0,0,9.48-1.46,6.64,6.64,0,0,0,2-1.5h7.1A7.11,7.11,0,0,1,726.33,59.09ZM720.4,47.78c-1.55-1.63-5.6-2.92-11.73-2.92-5.85,0-10.48,1.25-12.11,3.13a3.64,3.64,0,0,0-1,2.17h26.17A3.43,3.43,0,0,0,720.4,47.78Z" class="cls-1"/><path data-cppathid="10016" d="M743.35,46.4v8.39c0,3.05,1.34,4.18,5,4.18a43.77,43.77,0,0,0,6-.5v4.92a34.46,34.46,0,0,1-8,.84c-5.6,0-9.44-1.8-9.44-8.1V46.4h-7V41.1h7c.17-1.54.17-5.89.17-5.89l6.22-.16V41.1h11.35v5.3Z" class="cls-1"/><path data-cppathid="10017" d="M789,63.73a16.06,16.06,0,0,1-.38-2.63c-1.5,1.54-6.55,3.13-15.2,3.13-9.3,0-14.48-2.09-14.48-6.76v-.63c0-5,5-7.52,18.12-7.56,3.21,0,8.76.34,11.65.63a4.21,4.21,0,0,0-.67-2.42c-1-1.34-4-2.46-10.48-2.46-5.89,0-8.81.71-10,1.87a2.5,2.5,0,0,0-.54,1.38h-6.39a7.09,7.09,0,0,1,.38-1.79c1.46-4,6.59-6.47,16.24-6.47,10.89,0,15.78,2.42,17,7.55a24,24,0,0,1,.37,4.84c0,.84-.08,3.89-.08,5.77a18.27,18.27,0,0,0,.71,5.55ZM776.49,53.58c-6.13,0-9,.71-10.27,1.84a2,2,0,0,0-.54,1.38,1.44,1.44,0,0,0,.34,1.08c1,1.13,3.71,1.76,8.22,1.76,8.81,0,14.45-1,14.45-5.56C785.93,53.83,781,53.58,776.49,53.58Z" class="cls-1"/></svg>