<?xml version="1.0" encoding="UTF-8"?>
<svg xmlns="http://www.w3.org/2000/svg" onmouseup="{ if(window.parent.document.onmouseup) window.parent.document.onmouseup(arguments[0]);}" viewBox="0 0 817.68 95.58" data-name="Capa 1" id="Capa_1"><defs><style>.cls-1{fill:#fff;}</style></defs><path data-cppathid="10000" d="M48.61,22c-2.3,3.17-6.34,4.55-12.44,4.55H16.46v8.89H9.7V2.87H36.21c6.06,0,10.15,1.42,12.07,3.93a12.72,12.72,0,0,1,2.29,8A12.15,12.15,0,0,1,48.61,22ZM43,11.31C42,9.68,39.38,8.72,35,8.72H16.42V20.45h18.5c4.63,0,7-.88,8.1-2.55a6.07,6.07,0,0,0,.66-3.3A6.78,6.78,0,0,0,43,11.31Z" class="cls-1"/><path data-cppathid="10001" d="M82.92,18.7A38.53,38.53,0,0,0,75.57,18c-5.64,0-11,3-11,9.14v8.31H58.12v-23h6.26V18.4c1.13-3.21,5.55-5.8,11.07-6.13a33.91,33.91,0,0,1,7.47.21Z" class="cls-1"/><path data-cppathid="10002" d="M123.49,29.38c-2.84,4.1-8.93,6.6-18.37,6.6-8.89,0-15.19-2.5-18.16-6.51a10.24,10.24,0,0,1-1.83-5.6,8.81,8.81,0,0,1,1.75-5.38c3-4.09,9.06-6.72,18.24-6.72,9.52,0,15.37,2.92,18.2,6.59a9.15,9.15,0,0,1,.17,11Zm-6.26-8.81c-2.09-2-6.26-3.46-12.11-3.46S95.35,18.45,93,20.62a4.86,4.86,0,0,0-1.29,3.29A4.8,4.8,0,0,0,93,27.21c1.92,2.13,6.3,3.59,12.1,3.59,6.14,0,10.19-1.33,12.23-3.63a5,5,0,0,0,1.34-3.26A4.35,4.35,0,0,0,117.23,20.57Z" class="cls-1"/><path data-cppathid="10003" d="M161.72,21.7c-.79-3-4.71-4.59-12.19-4.59-5.92,0-10.22,1.25-12.31,3.67A5.07,5.07,0,0,0,136.09,24a5.21,5.21,0,0,0,1.17,3.3c1.88,2.34,6.51,3.46,12.32,3.46s9-.83,10.64-2.17a5.83,5.83,0,0,0,1.46-1.83h6.52a9.43,9.43,0,0,1-1.93,4.09C163.56,34,158.34,36,149.53,36c-9.14,0-15.28-2.25-18-5.89a10,10,0,0,1-1.92-6.18,9.53,9.53,0,0,1,2-6c3-3.79,9.23-6.17,18-6.17,9,0,14.49,2.25,17,6a10,10,0,0,1,1.5,3.92Z" class="cls-1"/><path data-cppathid="10004" d="M209.94,30.85c-2.55,2.63-7.89,5.17-17.46,5.17-8.76,0-15.15-1.92-18-6.26a10.68,10.68,0,0,1-1.75-6.05,9.88,9.88,0,0,1,1.79-5.64c3-4.05,9.52-6.35,17.91-6.35,10.31,0,17.24,3.59,18.87,10a22.4,22.4,0,0,1,.59,4.39H179.17a4.12,4.12,0,0,0,1.88,2.38c2,1.71,5.88,2.79,11.81,2.79a25.9,25.9,0,0,0,9.48-1.46,6.77,6.77,0,0,0,2-1.5h7.1A7.23,7.23,0,0,1,209.94,30.85ZM204,19.53c-1.55-1.63-5.6-2.92-11.73-2.92-5.85,0-10.48,1.25-12.11,3.13a3.66,3.66,0,0,0-1,2.17h26.17A3.43,3.43,0,0,0,204,19.53Z" class="cls-1"/><path data-cppathid="10005" d="M247.63,16.23V2.58H254V32.72a22.81,22.81,0,0,0,.25,2.76H248l-.17-4.26c-2,3.09-7.93,4.72-14,4.72-8.44,0-13.87-2.09-16.41-5.8a10.51,10.51,0,0,1-1.92-6.1,10.91,10.91,0,0,1,1.88-6.3c2.5-3.8,7.68-6,15.69-6C239.78,11.77,245.29,13.14,247.63,16.23Zm-24.47,4.22A5.44,5.44,0,0,0,221.91,24a5.2,5.2,0,0,0,1.25,3.51c2,2.25,6.1,3.34,12.11,3.34s10-1.17,11.6-3.68a5.39,5.39,0,0,0,.88-3.17,5.13,5.13,0,0,0-1.29-3.59c-2-2.17-5.93-3.3-11.73-3.3S224.91,18.28,223.16,20.45Z" class="cls-1"/><path data-cppathid="10006" d="M263.9,9.39V2.79h6.72v6.6Zm.67,26.09c-.38-.08-.55-1.13-.55-3.47V12.52h6.52V32c0,2.59,0,3.18.58,3.51Z" class="cls-1"/><path data-cppathid="10007" d="M329.9,24.33c0-3.76-1.75-6.93-8.93-6.93-5,0-9.31,2.05-9.31,6.93V35.48h-6V23.79c0-3.92-3.5-6.39-8.68-6.39-5.84,0-9.52,3.3-9.52,6.81V35.48h-6.43v-23h6.22v5.3c1.63-3.92,6.89-5.89,11.94-5.89,5.31,0,10,1.76,11.53,6,1.75-3.92,6.05-6,12.19-6,9.39,0,12.61,4.6,12.61,11.23,0,11.73,0,12,.41,12.32h-5.59C329.9,35.48,329.9,33,329.9,24.33Z" class="cls-1"/><path data-cppathid="10008" d="M345.54,9.39V2.79h6.72v6.6Zm.67,26.09c-.38-.08-.54-1.13-.54-3.47V12.52h6.51V32c0,2.59,0,3.18.59,3.51Z" class="cls-1"/><path data-cppathid="10009" d="M397.31,30.85c-2.55,2.63-7.89,5.17-17.45,5.17-8.77,0-15.16-1.92-18-6.26a10.68,10.68,0,0,1-1.75-6.05,9.88,9.88,0,0,1,1.79-5.64c3-4.05,9.52-6.35,17.91-6.35,10.31,0,17.24,3.59,18.87,10a22.4,22.4,0,0,1,.59,4.39H366.54a4.12,4.12,0,0,0,1.88,2.38c2,1.71,5.88,2.79,11.81,2.79a25.9,25.9,0,0,0,9.48-1.46,6.77,6.77,0,0,0,2-1.5h7.1A7.23,7.23,0,0,1,397.31,30.85Zm-5.93-11.32c-1.55-1.63-5.6-2.92-11.73-2.92-5.85,0-10.48,1.25-12.11,3.13a3.66,3.66,0,0,0-1,2.17h26.17A3.43,3.43,0,0,0,391.38,19.53Z" class="cls-1"/><path data-cppathid="10010" d="M433.41,35.48c-.29,0-.46-1.38-.46-11.19,0-4.55-3.09-6.89-9.89-6.89-5.81,0-11.11,2.72-11.11,6.93V35.48h-6.43v-23h6.22v5.3c2.09-4.47,8.19-6,14.07-6,9.94,0,13.61,4.88,13.61,11.35,0,11.65.13,11.86.34,12.32Z" class="cls-1"/><path data-cppathid="10011" d="M457.66,18.15v8.39c0,3.05,1.33,4.18,5,4.18a43.9,43.9,0,0,0,6.05-.5v4.93a35.24,35.24,0,0,1-8.06.83c-5.59,0-9.43-1.79-9.43-8.1V18.15h-7.06v-5.3h7.06c.16-1.54.16-5.88.16-5.88l6.22-.17v6.05h11.36v5.3Z" class="cls-1"/><path data-cppathid="10012" d="M511.42,29.38c-2.83,4.1-8.93,6.6-18.36,6.6-8.9,0-15.2-2.5-18.17-6.51a10.24,10.24,0,0,1-1.83-5.6,8.81,8.81,0,0,1,1.75-5.38c3-4.09,9.06-6.72,18.25-6.72,9.51,0,15.36,2.92,18.2,6.59a9.17,9.17,0,0,1,.16,11Zm-6.26-8.81c-2.09-2-6.26-3.46-12.1-3.46s-9.77,1.34-12.15,3.51a4.77,4.77,0,0,0,0,6.59c1.92,2.13,6.3,3.59,12.11,3.59,6.13,0,10.18-1.33,12.23-3.63a5,5,0,0,0,1.33-3.26A4.31,4.31,0,0,0,505.16,20.57Z" class="cls-1"/><path data-cppathid="10013" d="M535.63,36c-12.32,0-16.78-1.84-18.16-6.43a5.45,5.45,0,0,1-.29-1.54h6.3a2,2,0,0,0,.46,1.25c1,1.13,4,1.75,11.73,1.75,9.73,0,11.11-1.08,11.11-2.5,0-1.59-1.26-1.92-9.69-2.34-1.63-.08-4.55-.29-6.51-.42-9.23-.54-12.82-2.67-12.82-6.85,0-4.59,5.34-7.18,16-7.18s15.57,1.59,17.33,5.89a6.67,6.67,0,0,1,.37,1.84h-6.3a2.46,2.46,0,0,0-.38-.88c-1-1.08-3.84-1.79-10.6-1.79-9.19,0-10.35.87-10.35,2.17s1,1.67,9,2.08c2,.13,5,.3,7,.38,9.73.38,13.07,2.5,13.07,7.06C552.87,33.35,548.19,36,535.63,36Z" class="cls-1"/><path data-cppathid="10014" d="M608.09,16.23V2.58h6.35V32.72a22.81,22.81,0,0,0,.25,2.76h-6.26l-.17-4.26c-2,3.09-7.93,4.72-14,4.72-8.43,0-13.86-2.09-16.41-5.8A10.51,10.51,0,0,1,575.9,24a10.91,10.91,0,0,1,1.88-6.3c2.51-3.8,7.68-6,15.7-6C600.24,11.77,605.75,13.14,608.09,16.23Zm-24.46,4.22A5.39,5.39,0,0,0,582.37,24a5.16,5.16,0,0,0,1.26,3.51c2,2.25,6.09,3.34,12.1,3.34s10-1.17,11.61-3.68a5.39,5.39,0,0,0,.88-3.17,5.14,5.14,0,0,0-1.3-3.59c-2-2.17-5.93-3.3-11.73-3.3S585.38,18.28,583.63,20.45Z" class="cls-1"/><path data-cppathid="10015" d="M658.56,30.85C656,33.48,650.67,36,641.11,36c-8.77,0-15.16-1.92-18-6.26a10.68,10.68,0,0,1-1.75-6.05,9.88,9.88,0,0,1,1.79-5.64c3-4.05,9.52-6.35,17.91-6.35,10.31,0,17.24,3.59,18.87,10a22.4,22.4,0,0,1,.59,4.39H627.79a4.12,4.12,0,0,0,1.88,2.38c2,1.71,5.88,2.79,11.81,2.79A25.9,25.9,0,0,0,651,29.8a6.77,6.77,0,0,0,2-1.5h7.1A7.23,7.23,0,0,1,658.56,30.85Zm-5.93-11.32c-1.55-1.63-5.6-2.92-11.73-2.92-5.85,0-10.48,1.25-12.11,3.13a3.66,3.66,0,0,0-1,2.17H654A3.43,3.43,0,0,0,652.63,19.53Z" class="cls-1"/><path data-cppathid="10016" d="M9.62,85.57c-.25-.09-.42-.92-.42-2.34V55.8A15.61,15.61,0,0,0,9,52.54h6.43a19.39,19.39,0,0,1,.17,3.14V82.9c0,1.21.08,2.5.5,2.67Z" class="cls-1"/><path data-cppathid="10017" d="M26.23,59.48v-6.6H33v6.6Zm.67,26.09c-.38-.09-.54-1.13-.54-3.47V62.61h6.51V82.06c0,2.59,0,3.17.58,3.51Z" class="cls-1"/><path data-cppathid="10018" d="M92.23,74.42c0-3.76-1.75-6.93-8.93-6.93-5,0-9.31,2.05-9.31,6.93V85.57H68V73.88c0-3.93-3.51-6.39-8.69-6.39-5.84,0-9.52,3.3-9.52,6.81V85.57H43.39v-23h6.22v5.3C51.23,64,56.49,62,61.55,62c5.3,0,10,1.75,11.52,6,1.75-3.92,6.05-6,12.19-6,9.39,0,12.61,4.59,12.61,11.23,0,11.73,0,12,.41,12.32H92.69C92.23,85.57,92.23,83.1,92.23,74.42Z" class="cls-1"/><path data-cppathid="10019" d="M143.28,80.43c-2.93,3.51-8.35,5.51-15.28,5.51-5.18,0-11.86-1.25-14.11-4V93.33h-6.43V62.65h6.22v3.88C115.43,64.11,121.19,62,128,62c7.76,0,12.81,2.09,15.4,5.51A10.63,10.63,0,0,1,145.61,74,10,10,0,0,1,143.28,80.43Zm-6-10.18c-2.05-2-5.81-3-10.94-3S117,68.41,115.1,70.66a5.21,5.21,0,0,0-1.42,3.59,4.84,4.84,0,0,0,1.33,3.3c1.8,2,5.85,3.22,11.36,3.22,5.3,0,9.23-1.17,11.23-3.22A5.19,5.19,0,0,0,139,73.92,5,5,0,0,0,137.31,70.25Z" class="cls-1"/><path data-cppathid="10020" d="M153,59.48v-6.6h6.72v6.6Zm.67,26.09c-.37-.09-.54-1.13-.54-3.47V62.61h6.51V82.06c0,2.59,0,3.17.59,3.51Z" class="cls-1"/><path data-cppathid="10021" d="M204.72,80.93c-2.55,2.63-7.89,5.18-17.45,5.18-8.77,0-15.16-1.92-18-6.26a10.77,10.77,0,0,1-1.75-6.06,9.87,9.87,0,0,1,1.79-5.63c3-4,9.52-6.35,17.91-6.35,10.31,0,17.25,3.59,18.87,10a21.57,21.57,0,0,1,.59,4.38H174a4.09,4.09,0,0,0,1.88,2.38c2,1.72,5.88,2.8,11.81,2.8a25.9,25.9,0,0,0,9.48-1.46,6.64,6.64,0,0,0,2-1.5h7.1A7.11,7.11,0,0,1,204.72,80.93Zm-5.93-11.31c-1.55-1.63-5.6-2.92-11.73-2.92-5.85,0-10.48,1.25-12.11,3.13A3.64,3.64,0,0,0,174,72h26.17A3.43,3.43,0,0,0,198.79,69.62Z" class="cls-1"/><path data-cppathid="10022" d="M210.43,85.57V80.72l21-12.52h-20.5V62.94h31.35v4.55l-21.5,12.86h22.71v5.22Z" class="cls-1"/><path data-cppathid="10023" d="M277.8,85.57a16.34,16.34,0,0,1-.37-2.63c-1.51,1.54-6.56,3.13-15.2,3.13-9.31,0-14.49-2.09-14.49-6.76v-.63c0-5,5-7.52,18.12-7.56,3.22,0,8.77.34,11.65.63a4.13,4.13,0,0,0-.67-2.42c-1-1.34-4-2.47-10.48-2.47-5.88,0-8.8.71-10,1.88a2.52,2.52,0,0,0-.55,1.38h-6.38a7.05,7.05,0,0,1,.37-1.79c1.46-4,6.6-6.48,16.24-6.48,10.9,0,15.78,2.43,17,7.56a23.93,23.93,0,0,1,.38,4.84c0,.84-.09,3.89-.09,5.77a18.6,18.6,0,0,0,.71,5.55ZM265.32,75.42c-6.14,0-9,.71-10.27,1.84a2,2,0,0,0-.54,1.38,1.47,1.47,0,0,0,.33,1.08c1,1.13,3.72,1.76,8.23,1.76,8.8,0,14.44-1,14.44-5.56C274.76,75.67,269.79,75.42,265.32,75.42Z" class="cls-1"/><path data-cppathid="10024" d="M325.84,93.33h-7.47l5.76-7.8L307.06,62.61H314l13.65,17.74L340.5,62.61h6.8Z" class="cls-1"/><path data-cppathid="10025" d="M401,66.32V52.67h6.35V82.81a22.81,22.81,0,0,0,.25,2.76h-6.27l-.16-4.26c-2,3.09-7.94,4.72-14,4.72-8.43,0-13.86-2.09-16.41-5.81a10.45,10.45,0,0,1-1.92-6.09,11,11,0,0,1,1.88-6.31c2.51-3.79,7.68-6,15.7-6C393.17,61.85,398.68,63.23,401,66.32Zm-24.46,4.22a5.39,5.39,0,0,0-1.26,3.55,5.14,5.14,0,0,0,1.26,3.5c2,2.26,6.09,3.34,12.1,3.34s10-1.17,11.61-3.67a5.46,5.46,0,0,0,.87-3.17,5.13,5.13,0,0,0-1.29-3.59c-2-2.17-5.93-3.3-11.73-3.3S378.31,68.37,376.56,70.54Z" class="cls-1"/><path data-cppathid="10026" d="M451.48,80.93c-2.54,2.63-7.89,5.18-17.45,5.18-8.76,0-15.15-1.92-18-6.26a10.69,10.69,0,0,1-1.75-6.06A9.87,9.87,0,0,1,416,68.16c3-4,9.52-6.35,17.91-6.35,10.31,0,17.24,3.59,18.87,10a22.3,22.3,0,0,1,.59,4.38H420.72a4.09,4.09,0,0,0,1.88,2.38c2,1.72,5.88,2.8,11.81,2.8a25.9,25.9,0,0,0,9.48-1.46,6.77,6.77,0,0,0,2-1.5H453A7,7,0,0,1,451.48,80.93Zm-5.92-11.31C444,68,440,66.7,433.83,66.7c-5.85,0-10.48,1.25-12.11,3.13a3.64,3.64,0,0,0-1,2.17h26.17A3.43,3.43,0,0,0,445.56,69.62Z" class="cls-1"/><path data-cppathid="10027" d="M475.11,86.07c-12.32,0-16.79-1.84-18.16-6.43a5.49,5.49,0,0,1-.3-1.55H463a2,2,0,0,0,.46,1.26c1,1.12,4.05,1.75,11.73,1.75,9.72,0,11.1-1.08,11.1-2.5,0-1.59-1.25-1.92-9.68-2.34-1.63-.09-4.55-.29-6.52-.42-9.22-.54-12.81-2.67-12.81-6.85,0-4.59,5.34-7.18,16-7.18s15.57,1.59,17.32,5.89a6.4,6.4,0,0,1,.38,1.84h-6.3a2.65,2.65,0,0,0-.38-.88c-1-1.09-3.84-1.8-10.6-1.8-9.19,0-10.36.88-10.36,2.18s1,1.67,9,2.08c2,.13,5,.29,7,.38,9.73.37,13.07,2.5,13.07,7C492.35,83.44,487.67,86.07,475.11,86.07Z" class="cls-1"/><path data-cppathid="10028" d="M499.81,59.48v-6.6h6.72v6.6Zm.67,26.09c-.38-.09-.54-1.13-.54-3.47V62.61h6.51V82.06c0,2.59,0,3.17.59,3.51Z" class="cls-1"/><path data-cppathid="10029" d="M544.86,85.57c-.3,0-.46-1.38-.46-11.19,0-4.55-3.09-6.89-9.9-6.89-5.8,0-11.1,2.71-11.1,6.93V85.57H517v-23h6.22v5.3c2.09-4.47,8.18-6,14.07-6,9.93,0,13.61,4.88,13.61,11.35,0,11.65.12,11.86.33,12.32Z" class="cls-1"/><path data-cppathid="10030" d="M569.94,68.24V85.57h-6.47V68.24h-7.22v-5.3h7.22V60.85c0-5,3.17-8.72,11.1-8.72,2,0,6.56.16,7.64.33v5.39a60.71,60.71,0,0,0-7.05-.38c-4.22,0-5.35,1.5-5.35,3.76v1.71H582.3v5.3Z" class="cls-1"/><path data-cppathid="10031" d="M622.08,80.93c-2.55,2.63-7.89,5.18-17.45,5.18-8.77,0-15.16-1.92-18-6.26a10.69,10.69,0,0,1-1.75-6.06,9.87,9.87,0,0,1,1.79-5.63c3-4,9.52-6.35,17.91-6.35,10.31,0,17.24,3.59,18.87,10a22.3,22.3,0,0,1,.59,4.38H591.31a4.09,4.09,0,0,0,1.88,2.38c2,1.72,5.88,2.8,11.81,2.8a25.9,25.9,0,0,0,9.48-1.46,6.77,6.77,0,0,0,2-1.5h7.1A7.11,7.11,0,0,1,622.08,80.93Zm-5.93-11.31c-1.55-1.63-5.6-2.92-11.73-2.92-5.85,0-10.48,1.25-12.11,3.13a3.64,3.64,0,0,0-1,2.17h26.17A3.43,3.43,0,0,0,616.15,69.62Z" class="cls-1"/><path data-cppathid="10032" d="M659.72,71.79c-.79-3-4.71-4.59-12.19-4.59-5.92,0-10.22,1.25-12.31,3.67a5.07,5.07,0,0,0-1.13,3.26,5.21,5.21,0,0,0,1.17,3.3c1.88,2.33,6.51,3.46,12.32,3.46s9-.83,10.64-2.17a5.76,5.76,0,0,0,1.46-1.84h6.52a9.47,9.47,0,0,1-1.93,4.1c-2.71,3.08-7.93,5.09-16.74,5.09-9.14,0-15.28-2.26-18-5.89A10,10,0,0,1,627.58,74a9.53,9.53,0,0,1,2-6c3-3.8,9.23-6.18,18-6.18,9,0,14.49,2.26,17,6a10,10,0,0,1,1.5,3.92Z" class="cls-1"/><path data-cppathid="10033" d="M702.76,71.79c-.79-3-4.72-4.59-12.19-4.59-5.93,0-10.23,1.25-12.32,3.67a5.07,5.07,0,0,0-1.12,3.26,5.21,5.21,0,0,0,1.16,3.3c1.88,2.33,6.52,3.46,12.32,3.46s9-.83,10.65-2.17a5.9,5.9,0,0,0,1.46-1.84h6.51a9.44,9.44,0,0,1-1.92,4.1c-2.71,3.08-7.93,5.09-16.74,5.09-9.14,0-15.28-2.26-18-5.89A10,10,0,0,1,670.61,74a9.53,9.53,0,0,1,2-6c3-3.8,9.23-6.18,18-6.18,9,0,14.49,2.26,17,6a9.85,9.85,0,0,1,1.5,3.92Z" class="cls-1"/><path data-cppathid="10034" d="M716.78,59.48v-6.6h6.72v6.6Zm.67,26.09c-.38-.09-.55-1.13-.55-3.47V62.61h6.52V82.06c0,2.59,0,3.17.58,3.51Z" class="cls-1"/><path data-cppathid="10035" d="M769.59,79.47c-2.84,4.09-8.94,6.6-18.37,6.6-8.9,0-15.2-2.51-18.16-6.51a10.17,10.17,0,0,1-1.84-5.6A8.81,8.81,0,0,1,733,68.58c3-4.1,9.06-6.73,18.25-6.73,9.51,0,15.36,2.93,18.2,6.6a9.19,9.19,0,0,1,.17,11Zm-6.27-8.81c-2.08-2-6.26-3.46-12.1-3.46s-9.77,1.33-12.15,3.51a4.77,4.77,0,0,0,0,6.59c1.92,2.13,6.3,3.59,12.11,3.59,6.13,0,10.18-1.33,12.23-3.63A5,5,0,0,0,764.78,74,4.28,4.28,0,0,0,763.32,70.66ZM753,53.13h6.76l-6.38,7.22h-6Z" class="cls-1"/><path data-cppathid="10036" d="M806.27,85.57c-.29,0-.46-1.38-.46-11.19,0-4.55-3.08-6.89-9.89-6.89-5.8,0-11.11,2.71-11.11,6.93V85.57h-6.42v-23h6.22v5.3c2.08-4.47,8.18-6,14.07-6,9.93,0,13.61,4.88,13.61,11.35,0,11.65.12,11.86.33,12.32Z" class="cls-1"/></svg>