<?xml version="1.0" encoding="UTF-8"?>
<svg xmlns="http://www.w3.org/2000/svg" onmouseup="{ if(window.parent.document.onmouseup) window.parent.document.onmouseup(arguments[0]);}" viewBox="0 0 373.17 96.69" data-name="Capa 1" id="Capa_1"><defs><style>.cls-1{fill:#fff;}</style></defs><path data-cppathid="10000" d="M52.66,57.84H28.53V25.24h24c9.68,0,15.11,3,17.49,8.1a19.2,19.2,0,0,1,1.5,7.84,20.8,20.8,0,0,1-1.5,8.14C67.69,54.67,62.18,57.84,52.66,57.84Zm12-16.36a12.66,12.66,0,0,0-1-5.31C61.93,32.79,58.17,31,51.7,31H35.29V52h16c6.85,0,10.69-1.72,12.4-5A12.71,12.71,0,0,0,64.64,41.48Z" class="cls-1"/><path data-cppathid="10001" d="M113.56,53.21c-2.55,2.63-7.89,5.17-17.45,5.17-8.77,0-15.15-1.92-18-6.26a10.74,10.74,0,0,1-1.75-6,9.84,9.84,0,0,1,1.8-5.64c3-4,9.52-6.34,17.91-6.34,10.31,0,17.24,3.59,18.87,10a22.38,22.38,0,0,1,.58,4.39H82.79a4.12,4.12,0,0,0,1.88,2.38c2,1.71,5.89,2.79,11.82,2.79A25.83,25.83,0,0,0,106,52.16a6.82,6.82,0,0,0,2-1.5h7.09A7.23,7.23,0,0,1,113.56,53.21Zm-5.93-11.32C106.09,40.27,102,39,95.9,39c-5.84,0-10.48,1.25-12.11,3.13a3.79,3.79,0,0,0-1,2.17H109A3.41,3.41,0,0,0,107.63,41.89Z" class="cls-1"/><path data-cppathid="10002" d="M137.18,58.34c-12.31,0-16.78-1.83-18.16-6.43a5.45,5.45,0,0,1-.29-1.54H125a2,2,0,0,0,.46,1.25c1,1.13,4,1.75,11.73,1.75,9.73,0,11.11-1.08,11.11-2.5,0-1.59-1.25-1.92-9.69-2.34-1.62-.08-4.55-.29-6.51-.42-9.23-.54-12.82-2.67-12.82-6.84,0-4.59,5.35-7.18,16-7.18s15.57,1.58,17.32,5.88a6.84,6.84,0,0,1,.38,1.84h-6.31a2.68,2.68,0,0,0-.37-.88c-1-1.08-3.84-1.79-10.61-1.79-9.18,0-10.35.88-10.35,2.17s1,1.67,9,2.09c2,.12,5,.29,7,.37,9.72.38,13.06,2.51,13.06,7.06C154.42,55.71,149.75,58.34,137.18,58.34Z" class="cls-1"/><path data-cppathid="10003" d="M189,57.84a16.34,16.34,0,0,1-.37-2.63c-1.5,1.55-6.56,3.13-15.2,3.13-9.31,0-14.48-2.09-14.48-6.76V51c0-5,5-7.51,18.11-7.55,3.22,0,8.77.33,11.65.62A4.13,4.13,0,0,0,188,41.6c-1-1.33-4.05-2.46-10.48-2.46-5.88,0-8.8.71-10,1.88a2.49,2.49,0,0,0-.55,1.37h-6.38A7.62,7.62,0,0,1,161,40.6c1.46-4,6.6-6.47,16.24-6.47,10.9,0,15.78,2.42,17,7.56a23.81,23.81,0,0,1,.38,4.84c0,.83-.08,3.88-.08,5.76a18.27,18.27,0,0,0,.71,5.55ZM176.5,47.7c-6.14,0-9,.71-10.27,1.83a2,2,0,0,0-.54,1.38A1.49,1.49,0,0,0,166,52c1,1.12,3.72,1.75,8.23,1.75,8.81,0,14.44-1,14.44-5.55C185.94,48,181,47.7,176.5,47.7Z" class="cls-1"/><path data-cppathid="10004" d="M229.85,36c1.83-1.55,6.93-1.84,9.22-1.46V39c-2.54,0-5.42.17-6.18.63a5.37,5.37,0,0,1,1.72,2.84,7.33,7.33,0,0,1-.13,2.67c-.92,3.84-5,6.39-15.57,6.39a37.13,37.13,0,0,1-10.15-1.3,1.3,1.3,0,0,0-1.16,1.3c0,1,.87,1.58,13.06,1.58,13.53.05,17.58,1.46,17.58,5.89,0,5.05-6.43,7.39-19.79,7.39-14.24,0-18.45-2.76-18.45-6,0-2.55,2.92-3.8,5.38-4.18-2-.75-3.38-2-3.38-3.88a3.8,3.8,0,0,1,3.93-3.55,6.56,6.56,0,0,1-4.47-5.47,6.11,6.11,0,0,1,0-2c.71-4.05,5.76-7.39,16.2-7.39C223.21,33.92,227.38,34.8,229.85,36Zm1.71,23.42c0-1.55-1.46-1.59-11.27-1.84-4-.08-9.48,0-11.94-.12-1.21.16-2.13.71-2.13,1.75,0,1.25,2,2.46,11.81,2.46C229.26,61.68,231.52,60.76,231.56,59.43Zm-23.84-17a4.62,4.62,0,0,0,0,1c.25,2.38,3.67,3.67,10.23,3.67,7.3,0,10.06-1.37,10.39-3.71a6.91,6.91,0,0,0,0-1.25c-.42-2.09-3.3-3.47-10.23-3.47C211.39,38.72,208.1,40,207.72,42.44Z" class="cls-1"/><path data-cppathid="10005" d="M277,57.84h-6.26l-.17-4.13c-3,3.88-8.76,4.72-14.19,4.72-8.39,0-13.49-2.51-13.49-9.82,0-13.23-.16-13.4-.41-13.73h6.64c.2,0,.25,5.64.25,11.56,0,5,2.46,6.56,9.6,6.56,6.84,0,11.39-2.84,11.39-6.68V34.88h6.52V53.21C276.85,56.46,277,57.72,277,57.84ZM257.35,32.33v-6h-5.3v6Zm10.15,0v-6h-5.31v6Z" class="cls-1"/><path data-cppathid="10006" d="M321.22,53.21c-2.55,2.63-7.89,5.17-17.45,5.17-8.77,0-15.16-1.92-18-6.26a10.74,10.74,0,0,1-1.75-6,9.91,9.91,0,0,1,1.79-5.64c3-4,9.52-6.34,17.91-6.34,10.31,0,17.25,3.59,18.87,10a21.67,21.67,0,0,1,.59,4.39H290.45a4.12,4.12,0,0,0,1.88,2.38c2,1.71,5.88,2.79,11.81,2.79a25.9,25.9,0,0,0,9.48-1.46,6.64,6.64,0,0,0,2-1.5h7.1A7.23,7.23,0,0,1,321.22,53.21Zm-5.93-11.32c-1.55-1.62-5.6-2.92-11.73-2.92-5.85,0-10.48,1.25-12.11,3.13a3.66,3.66,0,0,0-1,2.17h26.18A3.49,3.49,0,0,0,315.29,41.89Z" class="cls-1"/><path data-cppathid="10007" d="M344.84,58.34c-12.32,0-16.78-1.83-18.16-6.43a5.45,5.45,0,0,1-.29-1.54h6.3a2,2,0,0,0,.46,1.25c1,1.13,4.05,1.75,11.73,1.75,9.73,0,11.1-1.08,11.1-2.5,0-1.59-1.25-1.92-9.68-2.34-1.63-.08-4.55-.29-6.51-.42-9.23-.54-12.82-2.67-12.82-6.84,0-4.59,5.34-7.18,16-7.18s15.57,1.58,17.33,5.88a6.74,6.74,0,0,1,.37,1.84h-6.3a2.53,2.53,0,0,0-.38-.88c-1-1.08-3.84-1.79-10.6-1.79-9.19,0-10.35.88-10.35,2.17s1,1.67,9,2.09c2,.12,5,.29,7,.37,9.73.38,13.07,2.51,13.07,7.06C362.08,55.71,357.4,58.34,344.84,58.34Z" class="cls-1"/></svg>