<?xml version="1.0" encoding="UTF-8"?>
<svg xmlns="http://www.w3.org/2000/svg" onmouseup="{ if(window.parent.document.onmouseup) window.parent.document.onmouseup(arguments[0]);}" viewBox="0 0 347.71 36.03" data-name="Capa 1" id="Capa_1"><defs><style>.cls-1{fill:#fff;}</style></defs><path data-cppathid="10000" transform="translate(-15.07 -26.46)" d="M23,62H15.07L38.49,26.77h8.28L69.66,62H61.5l-5.27-7.84H28.31ZM44.48,35.74l-2.07-3.47-2.12,3.47-8.24,12H52.54Z" class="cls-1"/><path data-cppathid="10001" transform="translate(-15.07 -26.46)" d="M106.27,47.09c-.86-3.2-5.09-5-13.16-5-6.39,0-11,1.35-13.28,4a5.42,5.42,0,0,0-1.22,3.51,5.59,5.59,0,0,0,1.26,3.56c2,2.52,7,3.74,13.29,3.74s9.73-.91,11.48-2.35a6.39,6.39,0,0,0,1.58-2h7A10.13,10.13,0,0,1,111.17,57c-2.92,3.33-8.55,5.49-18.06,5.49-9.86,0-16.48-2.43-19.46-6.35a10.84,10.84,0,0,1-2.07-6.67A10.25,10.25,0,0,1,73.7,43c3.2-4.1,10-6.66,19.41-6.66,9.69,0,15.63,2.43,18.38,6.48a10.73,10.73,0,0,1,1.62,4.24Z" class="cls-1"/><path data-cppathid="10002" transform="translate(-15.07 -26.46)" d="M130.44,43.26v9.05c0,3.29,1.45,4.51,5.36,4.51a45.52,45.52,0,0,0,6.53-.55v5.32a37.48,37.48,0,0,1-8.69.9c-6,0-10.18-1.94-10.18-8.74V43.26h-7.61V37.54h7.61c.18-1.67.18-6.35.18-6.35l6.71-.18v6.53h12.26v5.72Z" class="cls-1"/><path data-cppathid="10003" transform="translate(-15.07 -26.46)" d="M150.44,33.8V26.68h7.25V33.8ZM151.16,62c-.41-.09-.59-1.22-.59-3.74v-21h7v21c0,2.79,0,3.42.63,3.78Z" class="cls-1"/><path data-cppathid="10004" transform="translate(-15.07 -26.46)" d="M188.63,62h-8.24L162.68,37.18h7.57L184.53,56.5l14.23-19.32h7.34Z" class="cls-1"/><path data-cppathid="10005" transform="translate(-15.07 -26.46)" d="M210.83,33.8V26.68h7.25V33.8ZM211.55,62c-.41-.09-.59-1.22-.59-3.74v-21h7v21c0,2.79,0,3.42.63,3.78Z" class="cls-1"/><path data-cppathid="10006" transform="translate(-15.07 -26.46)" d="M261.13,41.19V26.46H268V59a24.6,24.6,0,0,0,.27,3h-6.76l-.18-4.59c-2.11,3.33-8.55,5.09-15.13,5.09-9.1,0-15-2.26-17.7-6.27a11.26,11.26,0,0,1-2.07-6.57,11.82,11.82,0,0,1,2-6.8c2.71-4.1,8.29-6.44,16.94-6.44C252.67,36.37,258.61,37.85,261.13,41.19Zm-26.39,4.55a5.83,5.83,0,0,0-1.35,3.82,5.59,5.59,0,0,0,1.35,3.79c2.12,2.43,6.58,3.6,13.06,3.6s10.77-1.26,12.52-4a5.84,5.84,0,0,0,.95-3.43,5.57,5.57,0,0,0-1.4-3.87c-2.11-2.34-6.39-3.56-12.65-3.56S236.63,43.39,234.74,45.74Z" class="cls-1"/><path data-cppathid="10007" transform="translate(-15.07 -26.46)" d="M307.92,62a16.82,16.82,0,0,1-.4-2.84c-1.62,1.67-7.07,3.38-16.4,3.38-10,0-15.63-2.25-15.63-7.3v-.67c0-5.36,5.41-8.11,19.55-8.15,3.47,0,9.46.36,12.57.67a4.57,4.57,0,0,0-.72-2.61c-1.13-1.44-4.37-2.66-11.31-2.66-6.35,0-9.5.77-10.76,2a2.69,2.69,0,0,0-.59,1.48h-6.89a7.42,7.42,0,0,1,.41-1.93c1.57-4.33,7.11-7,17.52-7,11.75,0,17,2.61,18.33,8.15a25.34,25.34,0,0,1,.4,5.22c0,.91-.09,4.19-.09,6.22a19.66,19.66,0,0,0,.77,6ZM294.46,51c-6.63,0-9.73.76-11.08,2a2.12,2.12,0,0,0-.59,1.48,1.55,1.55,0,0,0,.36,1.17c1,1.22,4,1.9,8.87,1.9,9.51,0,15.59-1,15.59-6C304.63,51.28,299.28,51,294.46,51Z" class="cls-1"/><path data-cppathid="10008" transform="translate(-15.07 -26.46)" d="M355.66,41.19V26.46h6.85V59a25.52,25.52,0,0,0,.26,3H356l-.18-4.59c-2.12,3.33-8.56,5.09-15.13,5.09-9.1,0-15-2.26-17.71-6.27a11.33,11.33,0,0,1-2.07-6.57,11.75,11.75,0,0,1,2-6.8c2.7-4.1,8.29-6.44,16.93-6.44C347.19,36.37,353.14,37.85,355.66,41.19Zm-26.4,4.55a5.83,5.83,0,0,0-1.35,3.82,5.59,5.59,0,0,0,1.35,3.79c2.12,2.43,6.58,3.6,13.07,3.6s10.76-1.26,12.52-4a5.9,5.9,0,0,0,.94-3.43,5.56,5.56,0,0,0-1.39-3.87c-2.12-2.34-6.4-3.56-12.66-3.56S331.16,43.39,329.26,45.74Z" class="cls-1"/></svg>